<?xml version="1.0" encoding="UTF-8" standalone="no"?>
<!DOCTYPE svg PUBLIC "-//W3C//DTD SVG 1.1//EN" "http://www.w3.org/Graphics/SVG/1.1/DTD/svg11.dtd">
<svg width="100%" height="100%" viewBox="0 0 524 67" version="1.1" xmlns="http://www.w3.org/2000/svg" xmlns:xlink="http://www.w3.org/1999/xlink" xml:space="preserve" xmlns:serif="http://www.serif.com/" style="fill-rule:evenodd;clip-rule:evenodd;stroke-linejoin:round;stroke-miterlimit:2;">
    <g id="Artboard1" transform="matrix(0.991823,0,0,0.887248,6.39924,3.67126)">
        <rect x="-6.452" y="-4.138" width="528.003" height="74.967" style="fill:none;"/>
        <g transform="matrix(1.00824,0,0,1.12708,-0.218693,-3.17039)">
            <path d="M139.164,29.87C139.164,45.425 130.389,53.241 116.765,53.241C103.218,53.241 94.597,45.425 94.597,30.317L94.597,0.333L103.743,0.333L103.743,29.946C103.743,39.617 108.732,44.824 116.919,44.824C125.029,44.824 130.018,39.911 130.018,30.317L130.018,0.333L139.164,0.333L139.164,29.87Z" style="fill:rgb(34,41,41);fill-rule:nonzero;"/>
        </g>
        <g transform="matrix(1.00824,0,0,1.12708,-0.218693,-3.17039)">
            <path d="M156.37,46.32C159.12,49.966 163.213,53.241 169.686,53.241C179.063,53.241 187.992,45.873 187.992,32.774C187.992,19.674 178.986,12.306 169.686,12.306C163.367,12.306 159.273,15.581 156.37,19.674L156.37,13.125L147.364,13.125L147.364,64.332L156.37,64.332L156.37,46.32ZM156.139,32.774C156.139,25.111 161.499,20.122 167.601,20.122C173.703,20.122 178.833,25.034 178.833,32.774C178.833,40.59 173.78,45.425 167.601,45.425C161.499,45.425 156.139,40.436 156.139,32.774Z" style="fill:rgb(34,41,41);"/>
        </g>
        <g transform="matrix(1.00824,0,0,1.12708,-0.218693,-3.17039)">
            <path d="M209.073,53.164C203.496,53.164 197.317,51.156 192.405,47.292L196.422,41.191C200.669,44.389 205.274,46.026 209.291,46.026C213.167,46.026 215.393,44.389 215.393,41.779L215.393,41.626C215.393,38.581 211.222,37.532 206.617,36.125C200.81,34.488 194.337,32.108 194.337,24.587L194.337,24.433C194.337,16.988 200.515,12.46 208.319,12.46C213.231,12.46 218.591,14.174 222.748,16.924L219.179,23.32C215.393,21.017 211.363,19.598 208.088,19.598C204.596,19.598 202.588,21.235 202.588,23.538L202.588,23.691C202.588,26.518 206.835,27.708 211.44,29.192C217.171,30.983 223.643,33.579 223.643,40.653L223.643,40.807C223.656,49.071 217.26,53.164 209.073,53.164Z" style="fill:rgb(34,41,41);fill-rule:nonzero;"/>
        </g>
        <g transform="matrix(1.00824,0,0,1.12708,-0.218693,-3.17039)">
            <path d="M241.821,40.142C241.821,43.634 243.612,45.054 246.656,45.054C248.665,45.054 250.456,44.606 252.234,43.711L252.234,51.079C249.995,52.345 247.475,53.087 244.124,53.087C237.497,53.087 232.815,50.184 232.815,41.549L232.815,20.864L227.826,20.864L227.826,13.125L232.815,13.125L232.815,2.341L241.821,2.341L241.821,13.125L252.387,13.125L252.387,20.864L241.821,20.864L241.821,40.142Z" style="fill:rgb(34,41,41);fill-rule:nonzero;"/>
        </g>
        <g transform="matrix(1.00824,0,0,1.12708,-0.218693,-3.17039)">
            <path d="M284.598,47.587L284.598,52.422L293.54,52.422L293.54,29.128C293.54,18.638 287.886,12.536 276.27,12.536C269.874,12.536 265.627,13.88 261.316,15.811L263.772,23.026C267.341,21.542 270.616,20.57 275.004,20.57C281.246,20.57 284.675,23.538 284.675,28.974L284.675,29.946C281.63,28.974 278.573,28.309 273.814,28.309C264.655,28.309 257.888,32.479 257.888,40.96L257.888,41.114C257.888,48.994 264.425,53.241 271.87,53.241C277.831,53.241 281.924,50.785 284.598,47.587ZM275.823,34.193C279.328,34.193 282.526,34.859 284.828,35.754L284.815,35.754L284.815,38.21C284.815,43.122 280.351,46.474 274.403,46.474C270.168,46.474 266.817,44.389 266.817,40.666L266.817,40.513C266.817,36.496 270.168,34.193 275.823,34.193Z" style="fill:rgb(34,41,41);"/>
        </g>
        <g transform="matrix(1.00824,0,0,1.12708,-0.218693,-3.17039)">
            <path d="M309.172,52.422L300.166,52.422L300.166,13.125L309.172,13.125L309.172,21.977C311.628,16.093 316.169,12.076 323.089,12.383L323.089,21.913L322.565,21.913C314.672,21.913 309.172,27.043 309.172,37.468L309.172,52.422Z" style="fill:rgb(34,41,41);fill-rule:nonzero;"/>
        </g>
        <g transform="matrix(1.00824,0,0,1.12708,-0.218693,-3.17039)">
            <path d="M342.29,40.142C342.29,43.634 344.081,45.054 347.126,45.054C349.134,45.054 350.925,44.606 352.703,43.711L352.703,51.079C350.465,52.345 347.945,53.087 344.593,53.087C337.967,53.087 333.285,50.184 333.285,41.549L333.285,20.864L328.296,20.864L328.296,13.125L333.285,13.125L333.285,2.341L342.29,2.341L342.29,13.125L352.857,13.125L352.857,20.864L342.29,20.864L342.29,40.142Z" style="fill:rgb(34,41,41);fill-rule:nonzero;"/>
        </g>
        <g transform="matrix(1.00824,0,0,1.12708,-0.218693,-3.17039)">
            <path d="M10.322,23.461L4.233,29.537C-1.101,34.871 -1.101,43.596 4.233,48.917L4.233,48.93C9.567,54.251 18.292,54.251 23.613,48.93L37.173,35.37L37.173,35.396C37.71,34.961 38.388,34.705 39.13,34.705C39.872,34.705 40.55,34.961 41.087,35.396L41.113,35.396L29.433,23.717C24.163,18.459 15.682,18.37 10.322,23.461Z" style="fill:rgb(0,128,123);fill-rule:nonzero;"/>
        </g>
        <g transform="matrix(1.00824,0,0,1.12708,-0.218693,-3.17039)">
            <path d="M74.027,29.537L48.839,4.349L48.826,4.337C48.494,4.004 48.148,3.697 47.79,3.403C42.417,-0.985 34.435,-0.665 29.433,4.324C29.344,4.413 29.267,4.503 29.177,4.592L28.423,5.347L10.309,23.461C15.682,18.37 24.163,18.459 29.421,23.729L41.1,35.409L54.634,48.93C59.968,54.264 68.692,54.264 74.027,48.93C79.361,43.596 79.361,34.871 74.027,29.537Z" style="fill:rgb(0,177,172);fill-rule:nonzero;"/>
        </g>
        <g transform="matrix(1.03815,0,0,1.21828,382.875,56.9445)">
            <text x="0px" y="0px" style="font-family:'GillSans-SemiBold', 'Gill Sans', sans-serif;font-weight:600;font-size:72px;fill:rgb(35,42,42);">D<tspan x="55.292px 92.092px " y="0px 0px ">ev</tspan></text>
        </g>
    </g>
</svg>
